# xmcd
#
# Track frame offsets:
#	150
#	6077
#	21295
#
# Disc length: 445
#
# Revision: 2
# Processed by: cddbd v1.5.1PL0 Copyright (c) Steve Scherf et al.
# Submitted via: EasyCDDAExtractor 7.0.3.1
# Normalized: r1:DSETVAR1
#
DISCID=1801bb03
DTITLE=Various Artist - Music inspired by Pink Panther's Penthouse Party
DYEAR=2004
DGENRE=Blues
TTITLE0=Henry Mancini - Pink Panther theme (from the Pink Panther strikes again)
TTITLE1=Peggy Lee - Fever
TTITLE2=Various Artist - Shot in the dark/Peter Gunn (under the gunn mix)
EXTD=
EXTT0=
EXTT1=
EXTT2=
PLAYORDER=
